<svg width="210" height="210" viewBox="0 0 210 210" fill="none" xmlns="http://www.w3.org/2000/svg">
<path d="M173.32 207.86H36.01C17.26 207.86 2 192.6 2 173.85V36.54C2 17.79 17.26 2.52997 36.01 2.52997H173.32C192.07 2.52997 207.33 17.79 207.33 36.54V173.85C207.33 192.6 192.08 207.86 173.32 207.86ZM36.01 17.9C25.74 17.9 17.38 26.26 17.38 36.53V173.84C17.38 184.11 25.74 192.47 36.01 192.47H173.32C183.59 192.47 191.95 184.11 191.95 173.84V36.54C191.95 26.27 183.59 17.91 173.32 17.91H36.01V17.9Z" fill="#343D3A"/>
<path d="M173.32 207.34H36.01C17.26 207.34 2 192.08 2 173.33V36.01C2 17.26 17.26 2 36.01 2H173.32C192.07 2 207.33 17.26 207.33 36.01V173.32C207.33 192.08 192.08 207.34 173.32 207.34ZM36.01 17.38C25.74 17.38 17.38 25.74 17.38 36.01V173.32C17.38 183.59 25.74 191.95 36.01 191.95H173.32C183.59 191.95 191.95 183.59 191.95 173.32V36.01C191.95 25.74 183.59 17.38 173.32 17.38H36.01Z" fill="#343D3A"/>
<path d="M90.1299 57.49L78.7899 40.11H46.34L73.84 82.46L90.1299 57.49Z" fill="#343D3A"/>
<path d="M106.41 82.46L90.1299 107.53L130.19 169.23H162.99L106.41 82.46Z" fill="#343D3A"/>
<path d="M46.34 169.23L130.54 40.11H162.99L79.14 169.23H46.34Z" fill="#4CC96C"/>
</svg>
